<svg width="18" height="16" viewBox="0 0 18 16" fill="none" xmlns="http://www.w3.org/2000/svg">
<g clip-path="url(#clip0_10_42)">
<path d="M17.04 4.70404C17.0017 3.8539 16.8614 3.26944 16.6604 2.76299C16.453 2.22541 16.1339 1.74412 15.7159 1.34401C15.3075 0.937683 14.8129 0.621948 14.2705 0.421957C13.7506 0.22502 13.1571 0.0875415 12.2893 0.0500586C11.415 0.00940124 11.1374 0 8.91995 0C6.70249 0 6.42493 0.00940124 5.55388 0.0468842C4.68606 0.0843671 4.08945 0.221967 3.5726 0.418783C3.02372 0.621948 2.53242 0.934509 2.124 1.34401C1.70922 1.74412 1.38705 2.22858 1.18277 2.75994C0.981742 3.26944 0.841406 3.85073 0.803144 4.70087C0.761641 5.55736 0.752045 5.82926 0.752045 8.00156C0.752045 10.1739 0.761641 10.4458 0.799903 11.2991C0.838166 12.1492 0.978626 12.7337 1.17966 13.2401C1.38705 13.7777 1.70922 14.259 2.124 14.6591C2.53242 15.0654 3.02696 15.3812 3.56936 15.5812C4.08945 15.7781 4.68282 15.9156 5.55076 15.9531C6.42169 15.9907 6.69938 16 8.91683 16C11.1343 16 11.4118 15.9907 12.2829 15.9531C13.1507 15.9156 13.7473 15.7781 14.2642 15.5812C15.3618 15.1654 16.2296 14.3153 16.654 13.2401C16.8549 12.7306 16.9954 12.1492 17.0336 11.2991C17.0719 10.4458 17.0815 10.1739 17.0815 8.00156C17.0815 5.82926 17.0783 5.55736 17.04 4.70404ZM15.5692 11.2366C15.5341 12.018 15.4001 12.4399 15.2884 12.7212C15.014 13.4183 14.4493 13.9715 13.7377 14.2403C13.4506 14.3497 13.0167 14.481 12.2222 14.5153C11.3607 14.5529 11.1024 14.5622 8.92319 14.5622C6.74399 14.5622 6.48239 14.5529 5.62405 14.5153C4.8264 14.481 4.39567 14.3497 4.10852 14.2403C3.75444 14.1121 3.43214 13.909 3.17054 13.6433C2.89934 13.3838 2.69195 13.0713 2.56108 12.7244C2.44941 12.4431 2.31543 12.018 2.28041 11.2397C2.24202 10.3958 2.23255 10.1426 2.23255 8.00779C2.23255 5.87297 2.24202 5.6167 2.28041 4.77596C2.31543 3.99455 2.44941 3.5726 2.56108 3.29129C2.69195 2.9443 2.89934 2.62869 3.17378 2.37229C3.43849 2.10661 3.75755 1.90345 4.11176 1.77537C4.39891 1.66597 4.83288 1.53472 5.62729 1.50029C6.48875 1.46281 6.74723 1.45341 8.92631 1.45341C11.1087 1.45341 11.3671 1.46281 12.2254 1.50029C13.0231 1.53472 13.4538 1.66597 13.741 1.77537C14.0951 1.90345 14.4174 2.10661 14.679 2.37229C14.9502 2.63174 15.1575 2.9443 15.2884 3.29129C15.4001 3.5726 15.5341 3.99761 15.5692 4.77596C15.6075 5.61987 15.6171 5.87297 15.6171 8.00779C15.6171 10.1426 15.6075 10.3927 15.5692 11.2366Z" fill="white"/>
<path d="M8.91994 3.8916C6.60365 3.8916 4.72432 5.73254 4.72432 8.00178C4.72432 10.271 6.60365 12.112 8.91994 12.112C11.2364 12.112 13.1156 10.271 13.1156 8.00178C13.1156 5.73254 11.2364 3.8916 8.91994 3.8916ZM8.91994 10.6679C7.41725 10.6679 6.19835 9.47399 6.19835 8.00178C6.19835 6.52957 7.41725 5.33561 8.91994 5.33561C10.4228 5.33561 11.6415 6.52957 11.6415 8.00178C11.6415 9.47399 10.4228 10.6679 8.91994 10.6679Z" fill="white"/>
<path d="M14.2611 3.72858C14.2611 4.25847 13.8225 4.68812 13.2814 4.68812C12.7405 4.68812 12.302 4.25847 12.302 3.72858C12.302 3.19857 12.7405 2.76904 13.2814 2.76904C13.8225 2.76904 14.2611 3.19857 14.2611 3.72858Z" fill="white"/>
</g>
<defs>
<clipPath id="clip0_10_42">
<rect width="16.3326" height="16" fill="white" transform="translate(0.723343)"/>
</clipPath>
</defs>
</svg>
