<svg width="16" height="14" viewBox="0 0 16 14" fill="none" xmlns="http://www.w3.org/2000/svg">
<g clip-path="url(#clip0_10_23)">
<path d="M13.7953 0H2.36248C1.57648 0 0.93338 0.63 0.93338 1.4V12.6C0.93338 13.37 1.57648 14 2.36248 14H13.7953C14.5813 14 15.2244 13.37 15.2244 12.6V1.4C15.2244 0.63 14.5813 0 13.7953 0ZM5.22069 11.9H3.07704V5.6H5.22069V11.9ZM4.14887 4.41C3.43431 4.41 2.86267 3.85 2.86267 3.15C2.86267 2.45 3.43431 1.89 4.14887 1.89C4.86342 1.89 5.43506 2.45 5.43506 3.15C5.43506 3.85 4.86342 4.41 4.14887 4.41ZM13.0808 11.9H10.9371V8.19C10.9371 7.63003 10.4369 7.14 9.86528 7.14C9.29364 7.14 8.79346 7.63003 8.79346 8.19V11.9H6.6498V5.6H8.79346V6.44C9.15073 5.88 9.93674 5.46 10.5798 5.46C11.9375 5.46 13.0808 6.58 13.0808 7.91V11.9Z" fill="white"/>
</g>
<defs>
<clipPath id="clip0_10_23">
<rect width="14.291" height="14" fill="white" transform="translate(0.93338)"/>
</clipPath>
</defs>
</svg>
