<svg width="21" height="20" viewBox="0 0 21 20" fill="none" xmlns="http://www.w3.org/2000/svg">
<g clip-path="url(#clip0_10_4)">
<path d="M20.4344 3.79875C19.6752 4.125 18.8663 4.34125 18.0228 4.44625C18.8905 3.93875 19.5527 3.14125 19.8641 2.18C19.0551 2.6525 18.1619 2.98625 17.21 3.1725C16.4419 2.37125 15.3471 1.875 14.1528 1.875C11.8356 1.875 9.97008 3.7175 9.97008 5.97625C9.97008 6.30125 9.99815 6.61375 10.0671 6.91125C6.58744 6.745 3.50848 5.11125 1.44011 2.6225C1.07901 3.23625 0.867192 3.93875 0.867192 4.695C0.867192 6.115 1.61364 7.37375 2.7263 8.1025C2.05386 8.09 1.39417 7.89875 0.835293 7.5975C0.835293 7.61 0.835293 7.62625 0.835293 7.6425C0.835293 9.635 2.28609 11.29 4.18858 11.6712C3.8479 11.7625 3.47658 11.8062 3.09124 11.8062C2.82328 11.8062 2.55277 11.7913 2.29885 11.7362C2.84114 13.36 4.37998 14.5538 6.20975 14.5925C4.78575 15.6838 2.97767 16.3412 1.02031 16.3412C0.67707 16.3412 0.347866 16.3263 0.0186615 16.285C1.87267 17.4563 4.06992 18.125 6.43942 18.125C14.1413 18.125 18.352 11.875 18.352 6.4575C18.352 6.27625 18.3457 6.10125 18.3367 5.9275C19.1674 5.35 19.8654 4.62875 20.4344 3.79875Z" fill="white"/>
</g>
<defs>
<clipPath id="clip0_10_4">
<rect width="20.4158" height="20" fill="white" transform="translate(0.0186615)"/>
</clipPath>
</defs>
</svg>
